<svg xmlns="http://www.w3.org/2000/svg" xmlns:xlink="http://www.w3.org/1999/xlink" width="102.542" height="133.544" viewBox="0 0 102.542 133.544">
  <defs>
    <clipPath id="clip-path">
      <rect id="Rectangle_44" data-name="Rectangle 44" width="47.068" height="126.599" fill="rgba(239,84,90,0.92)"/>
    </clipPath>
  </defs>
  <g id="Group_19" data-name="Group 19" transform="matrix(-0.875, -0.485, 0.485, -0.875, 41.166, 133.544)">
    <g id="Group_17" data-name="Group 17" transform="translate(0 0)" clip-path="url(#clip-path)">
      <path id="Path_19" data-name="Path 19" d="M.035.909A1.194,1.194,0,0,0,.257,1.93h0c.241.284.47.534.728.8,1.558,1.81,3.174,3.584,4.638,5.475.779,1,1.594,1.985,2.337,3.016q1.226,1.7,2.455,3.4c1.1,1.648,2.209,3.283,3.221,4.986.5.845,1.039,1.68,1.5,2.546q.8,1.5,1.594,2.995c.907,1.889,1.8,3.778,2.6,5.716.847,2.053,1.631,4.128,2.4,6.214.707,2.09,1.4,4.184,1.987,6.314.649,2.352,1.223,4.713,1.793,7.087.384,1.957.779,3.91,1.069,5.885.156,1.048.344,2.094.453,3.146l.346,3.332c.16,2.5.267,4.988.292,7.494.021,2.448-.073,4.9-.158,7.347-.083,1.577-.147,3.172-.356,4.739-.226,1.663-.48,3.311-.764,4.965-.482,2.354-.993,4.7-1.552,7.035-.517,2.162-1.14,4.295-1.8,6.416q-.576,1.7-1.236,3.375-1.306-1.918-2.61-3.84-1.463-2.155-2.931-4.3a19.941,19.941,0,0,0-2.295-3.01,6.457,6.457,0,0,0-3.714-1.848,7.264,7.264,0,0,0-1.748.041,7.016,7.016,0,0,0-2.273.845,5.659,5.659,0,0,0-2.613,3.5,7.426,7.426,0,0,0-.092,3.377,22.053,22.053,0,0,0,2.555,6.736c.869,1.582,1.746,3.146,2.668,4.7,1.789,3,3.782,5.876,5.752,8.756q1.05,1.53,2.1,3.063a17.458,17.458,0,0,0,1.723,2.256,6.8,6.8,0,0,0,3.016,1.765,11.019,11.019,0,0,0,7.176-.67,25.092,25.092,0,0,0,5.562-3.27,49.828,49.828,0,0,0,4.09-3.407c1.251-1.129,2.48-2.275,3.7-3.434.593-.561,1.225-1.1,1.761-1.712a14.043,14.043,0,0,0,2-2.869,11.61,11.61,0,0,0,1.428-5.6,5.358,5.358,0,0,0-.252-1.545.772.772,0,0,0-.534-.591,7.111,7.111,0,0,0-4.327-.028,12.527,12.527,0,0,0-5.313,2.756c-.243.211-.478.429-.709.653.687-2.056,1.236-4.162,1.746-6.258.433-1.787.719-3.616,1.012-5.428.286-1.755.544-3.511.794-5.27a61.05,61.05,0,0,0,.463-11.063c-.143-3.539-.395-7.1-.879-10.615-.467-3.4-1.163-6.766-1.851-10.13-.177-.873-.393-1.737-.6-2.6s-.367-1.716-.6-2.555c-.44-1.569-.83-3.159-1.332-4.711-.576-1.772-1.118-3.558-1.765-5.306q-.56-1.5-1.114-3.012c-.3-.807-.681-1.588-1.025-2.378-.677-1.55-1.477-3.048-2.258-4.546s-1.58-3.044-2.493-4.489c-1.974-3.129-4.1-6.149-6.243-9.166-2.566-3.616-5.419-6.993-8.318-10.342-1.336-1.541-2.753-3.02-4.2-4.455-.845-.837-1.7-1.622-2.6-2.4A12.875,12.875,0,0,0,3.414.894,11.431,11.431,0,0,0,2.267.22,2.464,2.464,0,0,0,1.328.006C1.286,0,1.241,0,1.2,0A1.21,1.21,0,0,0,.035.909" transform="translate(0 0.001)" fill="rgba(239,84,90,0.92)"/>
    </g>
  </g>
</svg>
