<svg xmlns="http://www.w3.org/2000/svg" xmlns:xlink="http://www.w3.org/1999/xlink" width="63.259" height="40.159" viewBox="0 0 63.259 40.159">
  <defs>
    <clipPath id="clip-path">
      <rect id="Rectangle_44" data-name="Rectangle 44" width="22.051" height="59.311" transform="translate(0 0)" fill="rgba(239,84,90,0.92)"/>
    </clipPath>
  </defs>
  <g id="Group_18" data-name="Group 18" transform="translate(56.08 0) rotate(71)">
    <g id="Group_17" data-name="Group 17" clip-path="url(#clip-path)">
      <path id="Path_19" data-name="Path 19" d="M.016,58.885a.559.559,0,0,1,.1-.478h0c.113-.133.22-.25.341-.376.73-.848,1.487-1.679,2.173-2.565.365-.47.747-.93,1.1-1.413q.575-.8,1.15-1.594c.517-.772,1.035-1.538,1.509-2.336.236-.4.487-.787.7-1.193q.373-.7.747-1.4c.425-.885.844-1.77,1.218-2.678.4-.962.764-1.934,1.123-2.911.331-.979.656-1.96.931-2.958.3-1.1.573-2.208.84-3.32.18-.917.365-1.832.5-2.757.073-.491.161-.981.212-1.474l.162-1.561c.075-1.171.125-2.337.137-3.511.01-1.147-.034-2.3-.074-3.442-.039-.739-.069-1.486-.167-2.22-.106-.779-.225-1.551-.358-2.326-.226-1.1-.465-2.2-.727-3.3-.242-1.013-.534-2.012-.843-3.006q-.27-.8-.579-1.581-.612.9-1.223,1.8Q8.3,13.295,7.616,14.3a9.342,9.342,0,0,1-1.075,1.41,3.025,3.025,0,0,1-1.74.866,3.4,3.4,0,0,1-.819-.019,3.287,3.287,0,0,1-1.065-.4A2.651,2.651,0,0,1,1.693,14.52a3.479,3.479,0,0,1-.043-1.582,10.332,10.332,0,0,1,1.2-3.156c.407-.741.818-1.474,1.25-2.2.838-1.4,1.772-2.753,2.695-4.1q.492-.717.984-1.435A8.179,8.179,0,0,1,8.583.988,3.184,3.184,0,0,1,10,.161a5.162,5.162,0,0,1,3.362.314,11.755,11.755,0,0,1,2.606,1.532A23.343,23.343,0,0,1,17.88,3.6c.586.529,1.162,1.066,1.735,1.609.278.263.574.514.825.8a6.579,6.579,0,0,1,.939,1.344,5.439,5.439,0,0,1,.669,2.625,2.51,2.51,0,0,1-.118.724.362.362,0,0,1-.25.277A3.332,3.332,0,0,1,19.653,11a5.869,5.869,0,0,1-2.489-1.291c-.114-.1-.224-.2-.332-.306.322.963.579,1.95.818,2.932.2.837.337,1.694.474,2.543.134.822.255,1.645.372,2.469a28.6,28.6,0,0,1,.217,5.183c-.067,1.658-.185,3.327-.412,4.973-.219,1.593-.545,3.17-.867,4.746-.083.409-.184.814-.28,1.219s-.172.8-.283,1.2c-.206.735-.389,1.48-.624,2.207-.27.83-.524,1.667-.827,2.486q-.263.705-.522,1.411c-.141.378-.319.744-.48,1.114-.317.726-.692,1.428-1.058,2.13s-.74,1.426-1.168,2.1c-.925,1.466-1.923,2.881-2.925,4.294-1.2,1.694-2.539,3.276-3.9,4.845-.626.722-1.29,1.415-1.968,2.087-.4.392-.8.76-1.216,1.125a6.032,6.032,0,0,1-.587.428,5.355,5.355,0,0,1-.537.316,1.155,1.155,0,0,1-.44.1c-.02,0-.041,0-.061,0a.567.567,0,0,1-.545-.426" fill="rgba(239,84,90,0.92)"/>
    </g>
  </g>
</svg>
