<svg xmlns="http://www.w3.org/2000/svg" width="16.038" height="16.038" viewBox="0 0 16.038 16.038">
  <path id="Icon_ionic-ios-checkmark-circle" data-name="Icon ionic-ios-checkmark-circle" d="M11.394,3.375a8.019,8.019,0,1,0,8.019,8.019A8.018,8.018,0,0,0,11.394,3.375Zm4.106,5.8-5.155,5.178h0a.7.7,0,0,1-.447.212.675.675,0,0,1-.451-.22L7.284,12.188a.154.154,0,0,1,0-.22l.686-.686a.149.149,0,0,1,.216,0L9.9,12.994l4.7-4.738a.152.152,0,0,1,.108-.046h0a.14.14,0,0,1,.108.046l.675.7A.152.152,0,0,1,15.5,9.177Z" transform="translate(-3.375 -3.375)" fill="#eb4f55"/>
</svg>
