<svg id="leadership_860398" xmlns="http://www.w3.org/2000/svg" width="76.933" height="76.933" viewBox="0 0 76.933 76.933">
  <g id="Group_53" data-name="Group 53" transform="translate(0 0)">
    <g id="Group_52" data-name="Group 52">
      <path id="Path_95" data-name="Path 95" d="M19.235,2.567a7.455,7.455,0,0,0-1.923.256A10.249,10.249,0,0,0,0,10.261a1.281,1.281,0,0,0,1.282,1.282H25.646a1.281,1.281,0,0,0,1.282-1.282A7.7,7.7,0,0,0,19.235,2.567ZM2.673,8.98h0a7.685,7.685,0,0,1,13.32-3.835,1.282,1.282,0,0,0,1.414.344A5.108,5.108,0,0,1,24.2,8.98H2.673Z" transform="translate(-0.002 -0.003)" fill="#eb4f55"/>
    </g>
  </g>
  <g id="Group_55" data-name="Group 55" transform="translate(19.1 14.325)">
    <g id="Group_54" data-name="Group 54" transform="translate(0 0)">
      <rect id="Rectangle_62" data-name="Rectangle 62" width="2.653" height="2.122" fill="#eb4f55"/>
    </g>
  </g>
  <g id="Group_57" data-name="Group 57" transform="translate(24.406 14.325)">
    <g id="Group_56" data-name="Group 56" transform="translate(0 0)">
      <rect id="Rectangle_63" data-name="Rectangle 63" width="2.653" height="2.122" fill="#eb4f55"/>
    </g>
  </g>
  <g id="Group_59" data-name="Group 59" transform="translate(29.712 14.325)">
    <g id="Group_58" data-name="Group 58" transform="translate(0 0)">
      <rect id="Rectangle_64" data-name="Rectangle 64" width="2.122" height="2.122" fill="#eb4f55"/>
    </g>
  </g>
  <g id="Group_61" data-name="Group 61" transform="translate(0 0)">
    <g id="Group_60" data-name="Group 60">
      <path id="Path_96" data-name="Path 96" d="M60.264,38.075a3.833,3.833,0,0,0-3.215-3.794l-4.244-.708.815-4.081h10.49v7.693h2.564V12.333l9.549-4.775a1.282,1.282,0,0,0,0-2.294L65.966.135a1.282,1.282,0,0,0-1.855,1.148V21.8H54.443a7.692,7.692,0,1,0-10.782.649L32.615,32.266l-7.171,3.585-3.677-.613a7.691,7.691,0,1,0-10.082.1,1.14,1.14,0,0,0-.058.1L7.651,45.776a6.367,6.367,0,0,0,.54,5.689,6.522,6.522,0,0,0,.692.905l-3.49,5.817L.376,63.2a1.281,1.281,0,0,0,0,1.813l3.847,3.847a1.282,1.282,0,0,0,1.813,0l6.411-6.411a1.282,1.282,0,0,0,.16-.195l4.925-7.388,1.7.154v5.24H17.951a1.281,1.281,0,0,0-1.282,1.282v9.237L.994,74.4A1.282,1.282,0,0,0,0,75.651v1.282H2.565v-.262L18.24,73.055a1.283,1.283,0,0,0,.994-1.25V62.829H38.467a1.28,1.28,0,0,0,.953-.424l11.158-12.4H76.933V47.442H60.264ZM66.675,3.358l6.108,3.054L66.675,9.466ZM43.6,16.669A5.129,5.129,0,1,1,48.724,21.8,5.134,5.134,0,0,1,43.6,16.669ZM41.788,27.543l-1.95,5.07-3.622,2.731-1.192-1.789ZM11.54,29.492a5.129,5.129,0,1,1,5.129,5.129A5.134,5.134,0,0,1,11.54,29.492Zm-1,31.238L5.129,66.145,3.1,64.111l4.222-4.222a1.273,1.273,0,0,0,.192-.246L10.953,53.9a6.452,6.452,0,0,0,2.1.559l1.572.142Zm15.1-.465H21.8V53.854a1.282,1.282,0,0,0-1.166-1.277l-7.346-.668A3.845,3.845,0,0,1,10.045,46.7L13.7,37.185h4.142l7.589,1.264a1.289,1.289,0,0,0,.783-.118l6.68-3.34,1.175,1.762-7.487,4.279h-6.07A1.282,1.282,0,0,0,19.272,42L17.99,47.132a1.282,1.282,0,0,0,1.033,1.575l5.551.926A1.278,1.278,0,0,1,25.645,50.9v9.368ZM51.289,47.442H50.007a1.28,1.28,0,0,0-.953.424L37.9,60.265H28.209V50.9A3.833,3.833,0,0,0,24.994,47.1l-4.181-.7.7-2.809h5.41a1.286,1.286,0,0,0,.636-.169L36.538,38.3c.019-.012.031-.032.05-.044s.059-.026.086-.045l2.679-2.019a6.418,6.418,0,0,0,.894,2.453,6.522,6.522,0,0,0,.692.905l-3.49,5.817-5.017,5.017a1.281,1.281,0,0,0,0,1.813l3.847,3.847a1.282,1.282,0,0,0,1.813,0L44.5,49.631a1.282,1.282,0,0,0,.16-.195l4.925-7.388,1.7.154Zm-8.281-6.36a6.451,6.451,0,0,0,2.1.559l1.572.142L42.6,47.908l-5.413,5.415-2.034-2.034,4.222-4.222a1.274,1.274,0,0,0,.192-.246ZM57.7,47.442H53.853V41.031a1.282,1.282,0,0,0-1.166-1.277l-7.346-.668A3.845,3.845,0,0,1,42.1,33.875l3.658-9.513H64.111v2.564H52.571a1.281,1.281,0,0,0-1.257,1.031l-1.282,6.411a1.28,1.28,0,0,0,1.046,1.517l5.551.926A1.275,1.275,0,0,1,57.7,38.075Z" transform="translate(0 0)" fill="#eb4f55"/>
    </g>
  </g>
</svg>
