<svg id="shopping-online_1230363" xmlns="http://www.w3.org/2000/svg" width="66.258" height="66.496" viewBox="0 0 66.258 66.496">
  <path id="Path_71" data-name="Path 71" d="M134,2.375c0-.713-1.5-2.375-3.562-2.375H99.562A3.562,3.562,0,0,0,96,3.562V4.75h38ZM112.624,3.562h-2.375a1.187,1.187,0,0,1,0-2.375h2.375a1.187,1.187,0,0,1,0,2.375Zm7.125,0h-2.375a1.187,1.187,0,0,1,0-2.375h2.375a1.187,1.187,0,0,1,0,2.375Zm0,0" transform="translate(-81.751)" fill="#eb4f55"/>
  <path id="Path_72" data-name="Path 72" d="M26.123,149.062a13.062,13.062,0,1,0-13.062,13.062A13.062,13.062,0,0,0,26.123,149.062Zm-13.062-1.187a4.74,4.74,0,0,1,1.187,9.331v1.356a1.187,1.187,0,0,1-2.375,0V157.2a4.75,4.75,0,0,1-3.562-4.581,1.187,1.187,0,0,1,2.375,0,2.375,2.375,0,1,0,2.375-2.375,4.74,4.74,0,0,1-1.187-9.331v-1.356a1.187,1.187,0,0,1,2.375,0v1.356a4.75,4.75,0,0,1,3.562,4.581,1.187,1.187,0,1,1-2.375,0,2.375,2.375,0,1,0-2.375,2.375Zm0,0" transform="translate(0 -115.814)" fill="#eb4f55"/>
  <path id="Path_73" data-name="Path 73" d="M129.181,90.747a3.563,3.563,0,0,1-3.344-2.375h-2.919a3.585,3.585,0,0,1-3.525-3.041l-4.148-28.005a1.188,1.188,0,0,0-1.176-1.014h-5.075V53.937h5.075a3.585,3.585,0,0,1,3.525,3.041l.605,4.084h15.731V48h-38V58.686c0,.021-.01.039-.012.059a15.421,15.421,0,0,1,0,30.755c0,.02.012.038.012.059v8.312h38v-9.5h-1.406a3.563,3.563,0,0,1-3.344,2.375Zm0,0" transform="translate(-81.684 -40.875)" fill="#eb4f55"/>
  <path id="Path_74" data-name="Path 74" d="M96,403.562a3.562,3.562,0,0,0,3.562,3.562h30.873A3.562,3.562,0,0,0,134,403.562V400H96Zm16.624-1.187h4.75a1.187,1.187,0,1,1,0,2.375h-4.75a1.187,1.187,0,0,1,0-2.375Zm0,0" transform="translate(-81.751 -340.629)" fill="#eb4f55"/>
  <path id="Path_75" data-name="Path 75" d="M314.375,305.187A1.187,1.187,0,1,1,313.187,304,1.187,1.187,0,0,1,314.375,305.187Zm0,0" transform="translate(-265.69 -258.878)" fill="#eb4f55"/>
  <path id="Path_76" data-name="Path 76" d="M267.344,280l.377,2.548a1.2,1.2,0,0,0,1.176,1.014h2.919a3.541,3.541,0,0,1,6.687,0h1.406V280Zm0,0" transform="translate(-227.663 -238.44)" fill="#eb4f55"/>
  <path id="Path_77" data-name="Path 77" d="M250.853,168.624h23.805L277.781,152h-29.39Zm21.229-15.437h2.375a1.187,1.187,0,1,1,0,2.375h-2.375a1.187,1.187,0,1,1,0-2.375Zm-20.186,0h16.624a1.187,1.187,0,0,1,0,2.375H251.9a1.187,1.187,0,0,1,0-2.375Zm0,0" transform="translate(-211.523 -129.439)" fill="#eb4f55"/>
  <path id="Path_78" data-name="Path 78" d="M361.5,288a3.55,3.55,0,0,0-3.344,2.375H352v2.375h6.156A3.556,3.556,0,1,0,361.5,288Zm0,0" transform="translate(-299.753 -245.253)" fill="#eb4f55"/>
</svg>
