<svg xmlns="http://www.w3.org/2000/svg" xmlns:xlink="http://www.w3.org/1999/xlink" width="51.727" height="51.722" viewBox="0 0 51.727 51.722">
  <defs>
    <filter id="Icon_awesome-instagram" x="0" y="0" width="51.727" height="51.722" filterUnits="userSpaceOnUse">
      <feOffset dx="1" dy="5" input="SourceAlpha"/>
      <feGaussianBlur stdDeviation="5" result="blur"/>
      <feFlood flood-color="#2a2a2a" flood-opacity="0.102"/>
      <feComposite operator="in" in2="blur"/>
      <feComposite in="SourceGraphic"/>
    </filter>
  </defs>
  <g transform="matrix(1, 0, 0, 1, 0, 0)" filter="url(#Icon_awesome-instagram)">
    <path id="Icon_awesome-instagram-2" data-name="Icon awesome-instagram" d="M10.861,7.53A5.569,5.569,0,1,0,16.43,13.1,5.56,5.56,0,0,0,10.861,7.53Zm0,9.19A3.621,3.621,0,1,1,14.482,13.1a3.627,3.627,0,0,1-3.621,3.621Zm7.1-9.418a1.3,1.3,0,1,1-1.3-1.3A1.3,1.3,0,0,1,17.957,7.3ZM21.646,8.62a6.429,6.429,0,0,0-1.755-4.551,6.471,6.471,0,0,0-4.551-1.755c-1.793-.1-7.169-.1-8.962,0a6.462,6.462,0,0,0-4.551,1.75A6.45,6.45,0,0,0,.071,8.615c-.1,1.793-.1,7.169,0,8.962a6.429,6.429,0,0,0,1.755,4.551,6.479,6.479,0,0,0,4.551,1.755c1.793.1,7.169.1,8.962,0a6.429,6.429,0,0,0,4.551-1.755,6.471,6.471,0,0,0,1.755-4.551c.1-1.793.1-7.164,0-8.957ZM19.329,19.5a3.666,3.666,0,0,1-2.065,2.065c-1.43.567-4.823.436-6.4.436s-4.978.126-6.4-.436A3.666,3.666,0,0,1,2.393,19.5c-.567-1.43-.436-4.823-.436-6.4s-.126-4.978.436-6.4A3.666,3.666,0,0,1,4.458,4.631c1.43-.567,4.823-.436,6.4-.436s4.978-.126,6.4.436A3.666,3.666,0,0,1,19.329,6.7c.567,1.43.436,4.823.436,6.4S19.9,18.077,19.329,19.5Z" transform="translate(14.01 7.76)" fill="#eb4f55"/>
  </g>
</svg>
