<svg xmlns="http://www.w3.org/2000/svg" xmlns:xlink="http://www.w3.org/1999/xlink" width="95.12" height="96.602" viewBox="0 0 95.12 96.602">
  <defs>
    <filter id="Path_66" x="28.441" y="0.156" width="66.564" height="67.467" filterUnits="userSpaceOnUse">
      <feOffset dy="3" input="SourceAlpha"/>
      <feGaussianBlur stdDeviation="7.5" result="blur"/>
      <feFlood flood-opacity="0.161"/>
      <feComposite operator="in" in2="blur"/>
      <feComposite in="SourceGraphic"/>
    </filter>
    <filter id="Path_67" x="0" y="0" width="66.684" height="67.512" filterUnits="userSpaceOnUse">
      <feOffset dy="3" input="SourceAlpha"/>
      <feGaussianBlur stdDeviation="7.5" result="blur-2"/>
      <feFlood flood-opacity="0.161"/>
      <feComposite operator="in" in2="blur-2"/>
      <feComposite in="SourceGraphic"/>
    </filter>
    <filter id="Path_68" x="28.425" y="29.79" width="66.694" height="66.783" filterUnits="userSpaceOnUse">
      <feOffset dy="3" input="SourceAlpha"/>
      <feGaussianBlur stdDeviation="7.5" result="blur-3"/>
      <feFlood flood-opacity="0.161"/>
      <feComposite operator="in" in2="blur-3"/>
      <feComposite in="SourceGraphic"/>
    </filter>
    <filter id="Path_69" x="0.137" y="29.862" width="66.57" height="66.74" filterUnits="userSpaceOnUse">
      <feOffset dy="3" input="SourceAlpha"/>
      <feGaussianBlur stdDeviation="7.5" result="blur-4"/>
      <feFlood flood-opacity="0.161"/>
      <feComposite operator="in" in2="blur-4"/>
      <feComposite in="SourceGraphic"/>
    </filter>
    <filter id="Path_70" x="18.538" y="18.625" width="58.789" height="59.261" filterUnits="userSpaceOnUse">
      <feOffset dy="3" input="SourceAlpha"/>
      <feGaussianBlur stdDeviation="7.5" result="blur-5"/>
      <feFlood flood-opacity="0.161"/>
      <feComposite operator="in" in2="blur-5"/>
      <feComposite in="SourceGraphic"/>
    </filter>
  </defs>
  <g id="Layer_1-2" transform="translate(7.385 2.848)">
    <g transform="matrix(1, 0, 0, 1, -7.38, -2.85)" filter="url(#Path_66)">
      <path id="Path_66-2" data-name="Path 66" d="M34.1,22.3C15.606,24.41,11.152,12.24,13.042.071,22.512-.087,35.536,13.545,34.1,22.3Z" transform="translate(38.3 19.59)" fill="#ef545a"/>
    </g>
    <g transform="matrix(1, 0, 0, 1, -7.38, -2.85)" filter="url(#Path_67)">
      <path id="Path_67-2" data-name="Path 67" d="M21.6,0c.067,5.894.765,11.675-3.284,16.623A15.506,15.506,0,0,1,6.345,22.494c-1.485.067-2.992-.09-4.454,0-1.845.135-2.159-.742-1.71-2.2A41.117,41.117,0,0,1,2.363,14.1,26.338,26.338,0,0,1,19.706.247,16.293,16.293,0,0,1,21.6,0Z" transform="translate(22.5 19.5)" fill="#ef545a"/>
    </g>
    <g transform="matrix(1, 0, 0, 1, -7.38, -2.85)" filter="url(#Path_68)">
      <path id="Path_68-2" data-name="Path 68" d="M34.33,13.641c-.135,9.9-12.124,21.887-21.392,21.37C10.8,18.545,20.2,11.414,34.33,13.641Z" transform="translate(38.29 36.05)" fill="#ef545a"/>
    </g>
    <g transform="matrix(1, 0, 0, 1, -7.38, -2.85)" filter="url(#Path_69)">
      <path id="Path_69-2" data-name="Path 69" d="M.06,13.646c14.981-2.272,23.192,6.028,21.3,21.37C10.182,34.836.1,22.576.06,13.646Z" transform="translate(22.58 36.09)" fill="#ef545a"/>
    </g>
    <g transform="matrix(1, 0, 0, 1, -7.38, -2.85)" filter="url(#Path_70)">
      <path id="Path_70-2" data-name="Path 70" d="M14.673,22.541a41.866,41.866,0,0,0-2.789-3.824A35.034,35.034,0,0,0,8.24,15.591a38.417,38.417,0,0,0,3.8-3.127A46.912,46.912,0,0,0,15.191,8.28c1.62,3.149,3.667,5.759,6.838,7L14.7,22.541Z" transform="translate(32.8 29.85)" fill="#ef545a"/>
    </g>
  </g>
</svg>
