<svg xmlns="http://www.w3.org/2000/svg" xmlns:xlink="http://www.w3.org/1999/xlink" width="159" height="97.199" viewBox="0 0 159 97.199">
  <defs>
    <clipPath id="clip-path">
      <rect id="Rectangle_114" data-name="Rectangle 114" width="159" height="97.199" fill="#2a2a2a"/>
    </clipPath>
  </defs>
  <g id="Group_144" data-name="Group 144" transform="translate(0 0)">
    <g id="Group_143" data-name="Group 143" transform="translate(0 0)" clip-path="url(#clip-path)">
      <text id="no" transform="translate(0 48.661)" fill="#2a2a2a" font-size="57" font-family="CoolveticaRg-Regular, Coolvetica"><tspan x="0" y="0">no</tspan></text>
      <path id="Path_106" data-name="Path 106" d="M7.667,25.029c.229,4.356,2.708,7.189,6.476,7.189,2.48,0,4.661-1.24,5.188-3.241h7.9c-1.773,5.949-6.545,9.309-12.73,9.309-9.669,0-14.5-5.3-14.5-15.791C0,13.532,5.125,7.756,14.025,7.756s13.617,5.776,13.617,17.273ZM19.746,20.2c-.118-4.3-2.944-6.365-5.956-6.365-3.061,0-5.6,2.355-5.894,6.365Z" transform="translate(0 45.96)" fill="#2a2a2a"/>
      <path id="Path_107" data-name="Path 107" d="M22.777,36.865l-5.07-8.72-4.952,8.72H3.565l9.724-14.794L3.856,7.866h9.253l4.9,8.429,4.952-8.429h8.9L22.244,22.072l9.9,14.794Z" transform="translate(21.124 46.614)" fill="#2a2a2a"/>
      <path id="Path_108" data-name="Path 108" d="M31.285,22.306a16.46,16.46,0,0,1,2.161-8.7A11.283,11.283,0,0,0,23.279,7.754a8.941,8.941,0,0,0-8.11,4.329L15.12,8.544H7.744V51.249h7.57v-17.5a10,10,0,0,0,8.6,4.523,10.751,10.751,0,0,0,9.78-5.8c-1.572-2.5-2.41-5.942-2.41-10.167m-9.828,9.433c-4.273,0-6.441-3.1-6.441-9.433,0-4.869,2.805-8.311,6.49-8.311,3.837,0,6.538,3.588,6.538,8.8,0,5.943-2.112,8.941-6.587,8.941" transform="translate(45.891 45.948)" fill="#2a2a2a"/>
      <path id="Path_109" data-name="Path 109" d="M24.129,14.985H12.286c.291-4.031,2.8-6.386,5.894-6.386,3,0,5.8,2.064,5.949,6.386" transform="translate(72.807 50.956)" fill="#2a2a2a"/>
      <path id="Path_110" data-name="Path 110" d="M43.937,7.79V15.6a16.012,16.012,0,0,0-2.112-.145c-4.717,0-7.03,2.362-7.03,7.03V37.572H27.127V35.459a12.676,12.676,0,0,0,4.717-6.884H23.935c-.54,1.967-2.7,3.2-5.16,3.2-3.782,0-6.24-2.805-6.49-7.175H32.239c0-6.981-1.718-11.843-5.111-14.6V8.58H34.3v3.435c2.556-3.879,5.506-4.225,8.6-4.225Z" transform="translate(72.801 46.161)" fill="#2a2a2a"/>
      <path id="Path_111" data-name="Path 111" d="M38.818,31.671c0,2.424,2.265,3.879,5.8,3.879,2.563,0,4.848-.762,4.848-2.7,0-1.87-2.078-2.424-4.433-2.978-4.64-1.039-7.2-1.8-9.142-2.978a6.385,6.385,0,0,1-3.463-5.887c0-4.363,3.186-7.757,11.566-7.757,7.965,0,11.566,2.978,11.913,8.588h-7c-.346-2.493-1.8-3.394-5.125-3.394-2.77,0-4.294.623-4.294,2.147s1.524,2.147,4.433,2.978c3.186.831,6.095,1.454,8.242,2.216,2.909,1.108,4.571,2.909,4.571,6.3,0,5.4-4.225,8.657-12.051,8.657a17.389,17.389,0,0,1-8.935-2.078c-1.732,1.8-4.294,2.84-7.688,2.84-7.757,0-10.8-4.987-10.8-10.666V7.084h6.857V12h7.965v7.2H24.114V30.078c0,3.394,1.177,5.333,4.086,5.333a3.582,3.582,0,0,0,3.463-1.939,4.585,4.585,0,0,0,.485-1.8,4.721,4.721,0,0,0,.139-1.454V28.762H38.8V30.84Z" transform="translate(102.265 41.978)" fill="#2a2a2a"/>
    </g>
  </g>
</svg>
