<svg id="search_3596870" xmlns="http://www.w3.org/2000/svg" width="66.914" height="66.913" viewBox="0 0 66.914 66.913">
  <g id="Group_42" data-name="Group 42" transform="translate(50.185)">
    <g id="Group_40" data-name="Group 40">
      <path id="Path_79" data-name="Path 79" d="M24.97,13.94a6.97,6.97,0,1,1,6.97-6.97A6.978,6.978,0,0,1,24.97,13.94Zm0-11.152A4.182,4.182,0,1,0,29.152,6.97,4.187,4.187,0,0,0,24.97,2.788Z" transform="translate(-18)" fill="#eb4f55"/>
    </g>
    <g id="Group_41" data-name="Group 41" transform="translate(9.758 9.76)">
      <path id="Path_80" data-name="Path 80" d="M27.077,10.469a1.4,1.4,0,0,1-.987-.407L21.908,5.88a1.394,1.394,0,0,1,1.971-1.971l4.182,4.182a1.393,1.393,0,0,1-.984,2.378Z" transform="translate(-21.5 -3.501)" fill="#eb4f55"/>
    </g>
  </g>
  <g id="Group_43" data-name="Group 43">
    <path id="Path_81" data-name="Path 81" d="M40.427,16.728H4.182A4.187,4.187,0,0,1,0,12.546V4.182A4.187,4.187,0,0,1,4.182,0H40.427a4.187,4.187,0,0,1,4.182,4.182v8.364A4.187,4.187,0,0,1,40.427,16.728ZM4.182,2.788A1.4,1.4,0,0,0,2.788,4.182v8.364A1.4,1.4,0,0,0,4.182,13.94H40.427a1.4,1.4,0,0,0,1.394-1.394V4.182a1.4,1.4,0,0,0-1.394-1.394Z" fill="#eb4f55"/>
  </g>
  <g id="Group_44" data-name="Group 44" transform="translate(0 22.304)">
    <path id="Path_82" data-name="Path 82" d="M8.364,24.728a8.364,8.364,0,1,1,8.364-8.364A8.374,8.374,0,0,1,8.364,24.728Zm0-13.94a5.576,5.576,0,1,0,5.576,5.576A5.582,5.582,0,0,0,8.364,10.788Z" transform="translate(0 -8)" fill="#eb4f55"/>
  </g>
  <g id="Group_45" data-name="Group 45" transform="translate(0 52.973)">
    <path id="Path_83" data-name="Path 83" d="M15.334,21.788H1.394a1.394,1.394,0,1,1,0-2.788h13.94a1.394,1.394,0,1,1,0,2.788Z" transform="translate(0 -19)" fill="#eb4f55"/>
  </g>
  <g id="Group_46" data-name="Group 46" transform="translate(0 61.337)">
    <path id="Path_84" data-name="Path 84" d="M15.334,24.788H1.394a1.394,1.394,0,1,1,0-2.788h13.94a1.394,1.394,0,1,1,0,2.788Z" transform="translate(0 -22)" fill="#eb4f55"/>
  </g>
  <g id="Group_47" data-name="Group 47" transform="translate(0 44.609)">
    <path id="Path_85" data-name="Path 85" d="M15.334,18.788H1.394a1.394,1.394,0,1,1,0-2.788h13.94a1.394,1.394,0,0,1,0,2.788Z" transform="translate(0 -16)" fill="#eb4f55"/>
  </g>
  <g id="Group_48" data-name="Group 48" transform="translate(22.305 22.304)">
    <path id="Path_86" data-name="Path 86" d="M48.427,52.609H12.182A4.187,4.187,0,0,1,8,48.427V12.182A4.187,4.187,0,0,1,12.182,8H48.427a4.187,4.187,0,0,1,4.182,4.182V48.427A4.187,4.187,0,0,1,48.427,52.609ZM12.182,10.788a1.4,1.4,0,0,0-1.394,1.394V48.427a1.4,1.4,0,0,0,1.394,1.394H48.427a1.4,1.4,0,0,0,1.394-1.394V12.182a1.4,1.4,0,0,0-1.394-1.394Z" transform="translate(-8 -8)" fill="#eb4f55"/>
  </g>
  <g id="Group_51" data-name="Group 51" transform="translate(36.245 33.457)">
    <g id="Group_49" data-name="Group 49" transform="translate(4.182)">
      <path id="Path_87" data-name="Path 87" d="M18.682,20.364a4.182,4.182,0,1,1,4.182-4.182A4.187,4.187,0,0,1,18.682,20.364Zm0-5.576a1.394,1.394,0,1,0,1.394,1.394A1.4,1.4,0,0,0,18.682,14.788Z" transform="translate(-14.5 -12)" fill="#eb4f55"/>
    </g>
    <g id="Group_50" data-name="Group 50" transform="translate(0 11.152)">
      <path id="Path_88" data-name="Path 88" d="M28.334,24.364A1.4,1.4,0,0,1,26.94,22.97V21.576a2.791,2.791,0,0,0-2.788-2.788H18.576a2.791,2.791,0,0,0-2.788,2.788V22.97a1.394,1.394,0,0,1-2.788,0V21.576A5.582,5.582,0,0,1,18.576,16h5.576a5.582,5.582,0,0,1,5.576,5.576V22.97A1.4,1.4,0,0,1,28.334,24.364Z" transform="translate(-13 -16)" fill="#eb4f55"/>
    </g>
  </g>
</svg>
