<svg xmlns="http://www.w3.org/2000/svg" xmlns:xlink="http://www.w3.org/1999/xlink" width="72.002" height="72.801" viewBox="0 0 72.002 72.801">
  <defs>
    <filter id="Path_66" x="15.323" y="0.084" width="56.618" height="57.104" filterUnits="userSpaceOnUse">
      <feOffset dy="3" input="SourceAlpha"/>
      <feGaussianBlur stdDeviation="7.5" result="blur"/>
      <feFlood flood-opacity="0.161"/>
      <feComposite operator="in" in2="blur"/>
      <feComposite in="SourceGraphic"/>
    </filter>
    <filter id="Path_67" x="0" y="0" width="56.682" height="57.128" filterUnits="userSpaceOnUse">
      <feOffset dy="3" input="SourceAlpha"/>
      <feGaussianBlur stdDeviation="7.5" result="blur-2"/>
      <feFlood flood-opacity="0.161"/>
      <feComposite operator="in" in2="blur-2"/>
      <feComposite in="SourceGraphic"/>
    </filter>
    <filter id="Path_68" x="15.314" y="16.05" width="56.688" height="56.736" filterUnits="userSpaceOnUse">
      <feOffset dy="3" input="SourceAlpha"/>
      <feGaussianBlur stdDeviation="7.5" result="blur-3"/>
      <feFlood flood-opacity="0.161"/>
      <feComposite operator="in" in2="blur-3"/>
      <feComposite in="SourceGraphic"/>
    </filter>
    <filter id="Path_69" x="0.074" y="16.088" width="56.621" height="56.713" filterUnits="userSpaceOnUse">
      <feOffset dy="3" input="SourceAlpha"/>
      <feGaussianBlur stdDeviation="7.5" result="blur-4"/>
      <feFlood flood-opacity="0.161"/>
      <feComposite operator="in" in2="blur-4"/>
      <feComposite in="SourceGraphic"/>
    </filter>
    <filter id="Path_70" x="9.987" y="10.035" width="52.429" height="52.683" filterUnits="userSpaceOnUse">
      <feOffset dy="3" input="SourceAlpha"/>
      <feGaussianBlur stdDeviation="7.5" result="blur-5"/>
      <feFlood flood-opacity="0.161"/>
      <feComposite operator="in" in2="blur-5"/>
      <feComposite in="SourceGraphic"/>
    </filter>
  </defs>
  <g id="Layer_1-2" transform="translate(7.385 2.848)">
    <g transform="matrix(1, 0, 0, 1, -7.38, -2.85)" filter="url(#Path_66)">
      <path id="Path_66-2" data-name="Path 66" d="M24.2,12.044C14.239,13.183,11.84,6.627,12.858.07,17.96-.015,24.977,7.329,24.2,12.044Z" transform="translate(25.18 19.51)" fill="#ef545a"/>
    </g>
    <g transform="matrix(1, 0, 0, 1, -7.38, -2.85)" filter="url(#Path_67)">
      <path id="Path_67-2" data-name="Path 67" d="M11.634,0c.036,3.175.412,6.29-1.769,8.956a8.354,8.354,0,0,1-6.447,3.163c-.8.036-1.612-.048-2.4,0-.994.073-1.163-.4-.921-1.188A22.152,22.152,0,0,1,1.273,7.6,14.19,14.19,0,0,1,10.616.133,8.778,8.778,0,0,1,11.634,0Z" transform="translate(22.5 19.5)" fill="#ef545a"/>
    </g>
    <g transform="matrix(1, 0, 0, 1, -7.38, -2.85)" filter="url(#Path_68)">
      <path id="Path_68-2" data-name="Path 68" d="M24.324,13.457C24.251,18.79,17.791,25.249,12.8,24.97,11.647,16.1,16.713,12.258,24.324,13.457Z" transform="translate(25.18 22.31)" fill="#ef545a"/>
    </g>
    <g transform="matrix(1, 0, 0, 1, -7.38, -2.85)" filter="url(#Path_69)">
      <path id="Path_69-2" data-name="Path 69" d="M.06,13.475c8.071-1.224,12.495,3.248,11.477,11.513C5.514,24.891.084,18.286.06,13.475Z" transform="translate(22.51 22.31)" fill="#ef545a"/>
    </g>
    <g transform="matrix(1, 0, 0, 1, -7.38, -2.85)" filter="url(#Path_70)">
      <path id="Path_70-2" data-name="Path 70" d="M11.706,15.963a22.555,22.555,0,0,0-1.5-2.06A18.875,18.875,0,0,0,8.24,12.219a20.7,20.7,0,0,0,2.048-1.685,25.274,25.274,0,0,0,1.7-2.254,7.269,7.269,0,0,0,3.684,3.769l-3.951,3.914Z" transform="translate(24.25 21.25)" fill="#ef545a"/>
    </g>
  </g>
</svg>
