<svg id="space-shuttle_3572008" xmlns="http://www.w3.org/2000/svg" width="66.357" height="66.357" viewBox="0 0 66.357 66.357">
  <path id="Path_89" data-name="Path 89" d="M311.607.57l4.024,4.024A41.138,41.138,0,0,1,334.69,6.2l-20.2,20.2a41.138,41.138,0,0,1-1.606-19.059l-4.024-4.024A1.944,1.944,0,0,1,311.607.57Z" transform="translate(-308.288 0)" fill="#eb4f55"/>
  <path id="Path_90" data-name="Path 90" d="M255.742,177.957a5.832,5.832,0,1,1-8.248,0A5.839,5.839,0,0,1,255.742,177.957Z" transform="translate(-222.946 -153.409)" fill="#eb4f55"/>
  <path id="Path_91" data-name="Path 91" d="M104.284,82.77,126.753,60.3a30.376,30.376,0,0,1,8.01,5.736c6.073,6.073,7.927,10.805,10.275,16.8,1.1,2.816,2.372,6.053,4.271,9.9l-12.6,12.6c-3.844-1.9-7.08-3.169-9.9-4.272-5.991-2.348-10.723-4.2-16.8-10.275A30.379,30.379,0,0,1,104.284,82.77Zm13.984,5.261a9.72,9.72,0,1,0,0-13.747A9.732,9.732,0,0,0,118.268,88.031Z" transform="translate(-96.469 -52.486)" fill="#eb4f55"/>
  <path id="Path_92" data-name="Path 92" d="M32.439,354.448c2.229,2.229,4.178,10.248,4.913,13.593a1.944,1.944,0,0,1-2.316,2.316c-3.345-.733-11.364-2.681-13.595-4.912a7.776,7.776,0,0,1,11-11Z" transform="translate(26.475 -306.531)" fill="#eb4f55"/>
  <path id="Path_93" data-name="Path 93" d="M14.87,215.423a1.967,1.967,0,0,1-2.269.822,10.775,10.775,0,0,0-7.476-.254c-1.826-3.7-3.051-6.822-4.132-9.582-.333-.849-.661-1.679-.994-2.5a14.4,14.4,0,0,1,9.673,4.2l4.918,4.919a1.947,1.947,0,0,1,.279,2.4Z" transform="translate(51.196 -177.48)" fill="#eb4f55"/>
  <path id="Path_94" data-name="Path 94" d="M223.64,409.889a1.947,1.947,0,0,1-2.4-.279l-4.919-4.918a14.4,14.4,0,0,1-4.2-9.674c.822.333,1.652.661,2.5.993,2.761,1.082,5.888,2.308,9.583,4.134a10.836,10.836,0,0,0,.254,7.476A1.945,1.945,0,0,1,223.64,409.889Z" transform="translate(-185.697 -343.822)" fill="#eb4f55"/>
</svg>
