<svg xmlns="http://www.w3.org/2000/svg" xmlns:xlink="http://www.w3.org/1999/xlink" width="54.817" height="50.156" viewBox="0 0 54.817 50.156">
  <defs>
    <filter id="Icon_awesome-twitter" x="0" y="0" width="54.817" height="50.156" filterUnits="userSpaceOnUse">
      <feOffset dx="1" dy="5" input="SourceAlpha"/>
      <feGaussianBlur stdDeviation="5" result="blur"/>
      <feFlood flood-color="#2a2a2a" flood-opacity="0.102"/>
      <feComposite operator="in" in2="blur"/>
      <feComposite in="SourceGraphic"/>
    </filter>
  </defs>
  <g transform="matrix(1, 0, 0, 1, 0, 0)" filter="url(#Icon_awesome-twitter)">
    <path id="Icon_awesome-twitter-2" data-name="Icon awesome-twitter" d="M22.266,8.4c.016.22.016.441.016.661A14.372,14.372,0,0,1,7.81,23.537,14.373,14.373,0,0,1,0,21.254a10.522,10.522,0,0,0,1.228.063,10.186,10.186,0,0,0,6.315-2.173,5.1,5.1,0,0,1-4.756-3.527,6.414,6.414,0,0,0,.961.079,5.379,5.379,0,0,0,1.338-.173A5.087,5.087,0,0,1,1.008,10.53v-.063a5.122,5.122,0,0,0,2.3.646,5.094,5.094,0,0,1-1.575-6.8A14.457,14.457,0,0,0,12.22,9.632a5.742,5.742,0,0,1-.126-1.165,5.091,5.091,0,0,1,8.8-3.48,10.014,10.014,0,0,0,3.228-1.228,5.073,5.073,0,0,1-2.236,2.8,10.2,10.2,0,0,0,2.929-.787A10.933,10.933,0,0,1,22.266,8.4Z" transform="translate(14 6.62)" fill="#eb4f55"/>
  </g>
</svg>
